<mxfile host="app.diagrams.net" agent="Mozilla/5.0 (X11; Ubuntu; Linux x86_64; rv:141.0) Gecko/20100101 Firefox/141.0" version="27.1.6">
  <diagram name="Page-1" id="WbihME-IynBr4Lk4_saN">
    <mxGraphModel dx="1422" dy="877" grid="1" gridSize="10" guides="1" tooltips="1" connect="1" arrows="1" fold="1" page="1" pageScale="1" pageWidth="850" pageHeight="1100" math="0" shadow="0">
      <root>
        <mxCell id="0" />
        <mxCell id="1" parent="0" />
        <mxCell id="X-FdRXritqUxF6wUWeFx-1" value="" style="rounded=0;whiteSpace=wrap;html=1;" vertex="1" parent="1">
          <mxGeometry x="50" y="230" width="950" height="540" as="geometry" />
        </mxCell>
        <mxCell id="X-FdRXritqUxF6wUWeFx-4" value="" style="rounded=0;whiteSpace=wrap;html=1;" vertex="1" parent="1">
          <mxGeometry x="50" y="230" width="950" height="110" as="geometry" />
        </mxCell>
        <mxCell id="X-FdRXritqUxF6wUWeFx-5" value="&lt;font style=&quot;font-size: 32px;&quot;&gt;Kapazität gesamt: 256&lt;span style=&quot;white-space: pre;&quot;&gt;&#x9;&lt;span style=&quot;white-space: pre;&quot;&gt;&#x9;&lt;/span&gt;Kapazität aktuell: 82&lt;/span&gt;&lt;span style=&quot;white-space: pre;&quot;&gt;&#x9;&lt;/span&gt;&lt;/font&gt;" style="text;html=1;align=center;verticalAlign=middle;whiteSpace=wrap;rounded=0;" vertex="1" parent="1">
          <mxGeometry x="90" y="250" width="870" height="70" as="geometry" />
        </mxCell>
        <mxCell id="X-FdRXritqUxF6wUWeFx-6" value="" style="rounded=0;whiteSpace=wrap;html=1;" vertex="1" parent="1">
          <mxGeometry x="130" y="395" width="220" height="285" as="geometry" />
        </mxCell>
        <mxCell id="X-FdRXritqUxF6wUWeFx-7" value="&lt;font style=&quot;font-size: 24px;&quot;&gt;Development&lt;/font&gt;" style="rounded=0;whiteSpace=wrap;html=1;" vertex="1" parent="1">
          <mxGeometry x="130" y="395" width="220" height="60" as="geometry" />
        </mxCell>
        <mxCell id="X-FdRXritqUxF6wUWeFx-8" value="&lt;font style=&quot;font-size: 16px;&quot;&gt;Aktiv&lt;/font&gt;" style="text;html=1;align=center;verticalAlign=middle;whiteSpace=wrap;rounded=0;" vertex="1" parent="1">
          <mxGeometry x="150" y="470" width="60" height="30" as="geometry" />
        </mxCell>
        <mxCell id="X-FdRXritqUxF6wUWeFx-9" value="&lt;font style=&quot;font-size: 16px;&quot;&gt;Pods&lt;/font&gt;" style="text;html=1;align=center;verticalAlign=middle;whiteSpace=wrap;rounded=0;" vertex="1" parent="1">
          <mxGeometry x="150" y="510" width="60" height="30" as="geometry" />
        </mxCell>
        <mxCell id="X-FdRXritqUxF6wUWeFx-10" value="&lt;font style=&quot;font-size: 16px;&quot;&gt;Kapazität&lt;/font&gt;" style="text;html=1;align=center;verticalAlign=middle;whiteSpace=wrap;rounded=0;" vertex="1" parent="1">
          <mxGeometry x="160" y="550" width="60" height="30" as="geometry" />
        </mxCell>
        <mxCell id="X-FdRXritqUxF6wUWeFx-12" value="" style="rounded=0;whiteSpace=wrap;html=1;" vertex="1" parent="1">
          <mxGeometry x="425" y="390" width="220" height="285" as="geometry" />
        </mxCell>
        <mxCell id="X-FdRXritqUxF6wUWeFx-13" value="&lt;font style=&quot;font-size: 24px;&quot;&gt;Staging&lt;/font&gt;" style="rounded=0;whiteSpace=wrap;html=1;" vertex="1" parent="1">
          <mxGeometry x="425" y="390" width="220" height="60" as="geometry" />
        </mxCell>
        <mxCell id="X-FdRXritqUxF6wUWeFx-14" value="&lt;font style=&quot;font-size: 16px;&quot;&gt;Aktiv&lt;/font&gt;" style="text;html=1;align=center;verticalAlign=middle;whiteSpace=wrap;rounded=0;" vertex="1" parent="1">
          <mxGeometry x="445" y="465" width="60" height="30" as="geometry" />
        </mxCell>
        <mxCell id="X-FdRXritqUxF6wUWeFx-15" value="&lt;font style=&quot;font-size: 16px;&quot;&gt;Pods&lt;/font&gt;" style="text;html=1;align=center;verticalAlign=middle;whiteSpace=wrap;rounded=0;" vertex="1" parent="1">
          <mxGeometry x="445" y="505" width="60" height="30" as="geometry" />
        </mxCell>
        <mxCell id="X-FdRXritqUxF6wUWeFx-16" value="&lt;font style=&quot;font-size: 16px;&quot;&gt;Kapazität&lt;/font&gt;" style="text;html=1;align=center;verticalAlign=middle;whiteSpace=wrap;rounded=0;" vertex="1" parent="1">
          <mxGeometry x="455" y="545" width="60" height="30" as="geometry" />
        </mxCell>
        <mxCell id="X-FdRXritqUxF6wUWeFx-17" value="" style="rounded=0;whiteSpace=wrap;html=1;" vertex="1" parent="1">
          <mxGeometry x="710" y="390" width="220" height="285" as="geometry" />
        </mxCell>
        <mxCell id="X-FdRXritqUxF6wUWeFx-18" value="&lt;font style=&quot;font-size: 24px;&quot;&gt;Prod&lt;/font&gt;" style="rounded=0;whiteSpace=wrap;html=1;" vertex="1" parent="1">
          <mxGeometry x="710" y="390" width="220" height="60" as="geometry" />
        </mxCell>
        <mxCell id="X-FdRXritqUxF6wUWeFx-19" value="&lt;font style=&quot;font-size: 16px;&quot;&gt;Aktiv&lt;/font&gt;" style="text;html=1;align=center;verticalAlign=middle;whiteSpace=wrap;rounded=0;" vertex="1" parent="1">
          <mxGeometry x="730" y="465" width="60" height="30" as="geometry" />
        </mxCell>
        <mxCell id="X-FdRXritqUxF6wUWeFx-20" value="&lt;font style=&quot;font-size: 16px;&quot;&gt;Pods&lt;/font&gt;" style="text;html=1;align=center;verticalAlign=middle;whiteSpace=wrap;rounded=0;" vertex="1" parent="1">
          <mxGeometry x="730" y="505" width="60" height="30" as="geometry" />
        </mxCell>
        <mxCell id="X-FdRXritqUxF6wUWeFx-21" value="&lt;font style=&quot;font-size: 16px;&quot;&gt;Kapazität&lt;/font&gt;" style="text;html=1;align=center;verticalAlign=middle;whiteSpace=wrap;rounded=0;" vertex="1" parent="1">
          <mxGeometry x="740" y="545" width="60" height="30" as="geometry" />
        </mxCell>
      </root>
    </mxGraphModel>
  </diagram>
</mxfile>
